<?xml version="1.0" encoding="UTF-8" standalone="no"?>
<!-- Created with Inkscape (http://www.inkscape.org/) -->

<svg
   width="56.771915mm"
   height="55.490601mm"
   viewBox="0 0 56.771915 55.490601"
   version="1.1"
   id="svg1"
   xmlns="http://www.w3.org/2000/svg"
   xmlns:svg="http://www.w3.org/2000/svg">
  <defs
     id="defs1" />
  <g
     id="layer1"
     transform="translate(-33.451675,-85.766419)">
    <path
       style="fill:#6c775f;fill-opacity:1;fill-rule:evenodd;stroke:#000000;stroke-width:0.264583"
       id="path1"
       d="m 59.126583,114.15189 c 0.925338,1.35374 -1.368282,1.91523 -2.250001,1.53798 -2.389404,-1.02233 -2.189899,-4.2915 -0.825944,-6.03798 2.439795,-3.12404 7.162535,-2.65601 9.825949,-0.11391 3.908667,3.73062 3.144058,10.07545 -0.598113,13.61392 -4.987725,4.71622 -13.00363,3.64194 -17.401897,-1.31014 -5.53477,-6.23169 -4.145009,-15.93917 2.02217,-21.18987 7.46928,-6.35931 18.87887,-4.651103 24.977845,2.73419 7.18743,8.70332 5.159089,21.82118 -3.446227,28.76582 -9.935179,8.01787 -24.765213,5.66835 -32.553793,-4.15825 -8.849879,-11.16561 -6.17849,-27.71047 4.870284,-36.341769 12.395055,-9.68301 30.656616,-6.689275 40.129741,5.582313 10.516964,13.623786 7.20054,33.603426 -6.294341,43.917716" />
  </g>
</svg>
